<svg xmlns="http://www.w3.org/2000/svg" width="25" height="25" viewBox="0 0 25 25" fill="none">
    <path d="M1.51855 12.1748C1.51855 5.9616 6.55535 0.924805 12.7686 0.924805C18.9818 0.924805 24.0186 5.9616 24.0186 12.1748C24.0186 18.388 18.9818 23.4248 12.7686 23.4248C6.55535 23.4248 1.51855 18.388 1.51855 12.1748Z" fill="#2097F3"/>
    <path d="M1.51855 12.1748C1.51855 5.9616 6.55535 0.924805 12.7686 0.924805C18.9818 0.924805 24.0186 5.9616 24.0186 12.1748C24.0186 18.388 18.9818 23.4248 12.7686 23.4248C6.55535 23.4248 1.51855 18.388 1.51855 12.1748Z" stroke="#2097F3" stroke-width="1.5"/>
    <path fill-rule="evenodd" clip-rule="evenodd" d="M17.8646 7.56496L10.7046 14.475L8.80457 12.445C8.45457 12.115 7.90457 12.095 7.50457 12.375C7.11457 12.665 7.00457 13.175 7.24457 13.585L9.49457 17.245C9.71457 17.585 10.0946 17.795 10.5246 17.795C10.9346 17.795 11.3246 17.585 11.5446 17.245C11.9046 16.775 18.7746 8.58496 18.7746 8.58496C19.6746 7.66496 18.5846 6.85496 17.8646 7.55496V7.56496Z" fill="white"/>
</svg>